# xmcd
#
# Track frame offsets: 
#        183
#        17733
#        39935
#
# Disc length: 789 seconds
#
# Revision: 1
# Processed by: cddbd v1.4PL0 Copyright (c) Steve Scherf et al.
# Submitted via: ExactAudioCopy v0.95a3
#
DISCID=17031303
DTITLE=Foo Fighters - I'll Stick Around [CDS)
DYEAR=1995
DGENRE=Rock
TTITLE0=I'll Stick Around
TTITLE1=How I Miss You
TTITLE2=Ozone
EXTD=ID3G:   2 YEAR: 1997
EXTT0=
EXTT1=
EXTT2=
PLAYORDER=
